<?xml version="1.0" encoding="utf-8"?>
<!-- Generator: Adobe Illustrator 17.1.0, SVG Export Plug-In . SVG Version: 6.00 Build 0)  -->
<!DOCTYPE svg PUBLIC "-//W3C//DTD SVG 1.1//EN" "http://www.w3.org/Graphics/SVG/1.1/DTD/svg11.dtd" [
	<!ENTITY ns_extend "http://ns.adobe.com/Extensibility/1.0/">
	<!ENTITY ns_ai "http://ns.adobe.com/AdobeIllustrator/10.0/">
	<!ENTITY ns_graphs "http://ns.adobe.com/Graphs/1.0/">
	<!ENTITY ns_vars "http://ns.adobe.com/Variables/1.0/">
	<!ENTITY ns_imrep "http://ns.adobe.com/ImageReplacement/1.0/">
	<!ENTITY ns_sfw "http://ns.adobe.com/SaveForWeb/1.0/">
	<!ENTITY ns_custom "http://ns.adobe.com/GenericCustomNamespace/1.0/">
	<!ENTITY ns_adobe_xpath "http://ns.adobe.com/XPath/1.0/">
]>
<svg version="1.1" xmlns:x="&ns_extend;" xmlns:i="&ns_ai;" xmlns:graph="&ns_graphs;"
	 xmlns="http://www.w3.org/2000/svg" xmlns:xlink="http://www.w3.org/1999/xlink" x="0px" y="0px" viewBox="0 0 400 500"
	 enable-background="new 0 0 400 500" xml:space="preserve">
<metadata>
	<sfw  xmlns="&ns_sfw;">
		<slices></slices>
		<sliceSourceBounds  width="646.2" height="701.4" x="-146" y="-670.6" bottomLeftOrigin="true"></sliceSourceBounds>
	</sfw>
</metadata>
<g id="Layer_3">
	<rect fill="#7DCDDD" width="400" height="500"/>
</g>
<g id="Layer_7">
	<polygon fill="#333745" points="99.9,381 38.7,193.2 198,20 272,94.9 400,0 400,317 232,400 	"/>
	<polygon fill="#333745" points="0,355 52,473 79.6,457.3 133,480 229.4,453.8 211.7,506.9 63,549 -28,500 	"/>
</g>
<g id="Layer_2">
	<path fill="none" stroke="#FFFFFF" stroke-miterlimit="10" d="M308.1,0"/>
	<path fill="none" stroke="#FFFFFF" stroke-miterlimit="10" d="M116.9,330"/>
	<g>
		<line fill="none" stroke="#FFFFFF" stroke-miterlimit="10" x1="327.7" y1="670.1" x2="-145.7" y2="427.9"/>
		<line fill="none" stroke="#FCFEFE" stroke-miterlimit="10" x1="331.1" y1="663.3" x2="-142.9" y2="418.9"/>
		<line fill="none" stroke="#FAFDFE" stroke-miterlimit="10" x1="334.5" y1="656.5" x2="-140" y2="409.9"/>
		<line fill="none" stroke="#F7FCFD" stroke-miterlimit="10" x1="337.9" y1="649.6" x2="-137.2" y2="400.9"/>
		<line fill="none" stroke="#F5FBFC" stroke-miterlimit="10" x1="341.2" y1="642.8" x2="-134.3" y2="391.9"/>
		<line fill="none" stroke="#F2FAFC" stroke-miterlimit="10" x1="344.6" y1="636" x2="-131.4" y2="383"/>
		<line fill="none" stroke="#F0F9FB" stroke-miterlimit="10" x1="348" y1="629.2" x2="-128.6" y2="374"/>
		<line fill="none" stroke="#EDF8FA" stroke-miterlimit="10" x1="351.4" y1="622.3" x2="-125.7" y2="365"/>
		<line fill="none" stroke="#EBF7FA" stroke-miterlimit="10" x1="354.7" y1="615.5" x2="-122.9" y2="356"/>
		<line fill="none" stroke="#E8F6F9" stroke-miterlimit="10" x1="358.1" y1="608.7" x2="-120" y2="347"/>
		<line fill="none" stroke="#E6F5F8" stroke-miterlimit="10" x1="361.5" y1="601.9" x2="-117.2" y2="338"/>
		<line fill="none" stroke="#E3F4F8" stroke-miterlimit="10" x1="364.9" y1="595" x2="-114.3" y2="329"/>
		<line fill="none" stroke="#E0F3F7" stroke-miterlimit="10" x1="368.3" y1="588.2" x2="-111.4" y2="320"/>
		<line fill="none" stroke="#DEF2F6" stroke-miterlimit="10" x1="371.6" y1="581.4" x2="-108.6" y2="311.1"/>
		<line fill="none" stroke="#DBF1F6" stroke-miterlimit="10" x1="375" y1="574.6" x2="-105.7" y2="302.1"/>
		<line fill="none" stroke="#D9F0F5" stroke-miterlimit="10" x1="378.4" y1="567.7" x2="-102.9" y2="293.1"/>
		<line fill="none" stroke="#D6EFF4" stroke-miterlimit="10" x1="381.8" y1="560.9" x2="-100" y2="284.1"/>
		<line fill="none" stroke="#D4EEF4" stroke-miterlimit="10" x1="385.1" y1="554.1" x2="-97.1" y2="275.1"/>
		<line fill="none" stroke="#D1EDF3" stroke-miterlimit="10" x1="388.5" y1="547.3" x2="-94.3" y2="266.1"/>
		<line fill="none" stroke="#CFECF2" stroke-miterlimit="10" x1="391.9" y1="540.4" x2="-91.4" y2="257.1"/>
		<line fill="none" stroke="#CCEBF2" stroke-miterlimit="10" x1="395.3" y1="533.6" x2="-88.6" y2="248.1"/>
		<line fill="none" stroke="#C9EAF1" stroke-miterlimit="10" x1="398.7" y1="526.8" x2="-85.7" y2="239.2"/>
		<line fill="none" stroke="#C7E9F0" stroke-miterlimit="10" x1="402" y1="519.9" x2="-82.9" y2="230.2"/>
		<line fill="none" stroke="#C4E8F0" stroke-miterlimit="10" x1="405.4" y1="513.1" x2="-80" y2="221.2"/>
		<line fill="none" stroke="#C2E7EF" stroke-miterlimit="10" x1="408.8" y1="506.3" x2="-77.1" y2="212.2"/>
		<line fill="none" stroke="#BFE6EE" stroke-miterlimit="10" x1="412.2" y1="499.5" x2="-74.3" y2="203.2"/>
		<line fill="none" stroke="#BDE6EE" stroke-miterlimit="10" x1="415.6" y1="492.6" x2="-71.4" y2="194.2"/>
		<line fill="none" stroke="#BAE5ED" stroke-miterlimit="10" x1="418.9" y1="485.8" x2="-68.6" y2="185.2"/>
		<line fill="none" stroke="#B8E4EC" stroke-miterlimit="10" x1="422.3" y1="479" x2="-65.7" y2="176.3"/>
		<line fill="none" stroke="#B5E3EC" stroke-miterlimit="10" x1="425.7" y1="472.2" x2="-62.9" y2="167.3"/>
		<line fill="none" stroke="#B3E2EB" stroke-miterlimit="10" x1="429.1" y1="465.3" x2="-60" y2="158.3"/>
		<line fill="none" stroke="#B0E1EA" stroke-miterlimit="10" x1="432.4" y1="458.5" x2="-57.1" y2="149.3"/>
		<line fill="none" stroke="#ADE0EA" stroke-miterlimit="10" x1="435.8" y1="451.7" x2="-54.3" y2="140.3"/>
		<line fill="none" stroke="#ABDFE9" stroke-miterlimit="10" x1="439.2" y1="444.9" x2="-51.4" y2="131.3"/>
		<line fill="none" stroke="#A8DEE8" stroke-miterlimit="10" x1="442.6" y1="438" x2="-48.6" y2="122.3"/>
		<line fill="none" stroke="#A6DDE8" stroke-miterlimit="10" x1="446" y1="431.2" x2="-45.7" y2="113.3"/>
		<line fill="none" stroke="#A3DCE7" stroke-miterlimit="10" x1="449.3" y1="424.4" x2="-42.9" y2="104.4"/>
		<line fill="none" stroke="#A1DBE6" stroke-miterlimit="10" x1="452.7" y1="417.6" x2="-40" y2="95.4"/>
		<line fill="none" stroke="#9EDAE6" stroke-miterlimit="10" x1="456.1" y1="410.7" x2="-37.1" y2="86.4"/>
		<line fill="none" stroke="#9CD9E5" stroke-miterlimit="10" x1="459.5" y1="403.9" x2="-34.3" y2="77.4"/>
		<line fill="none" stroke="#99D8E4" stroke-miterlimit="10" x1="462.8" y1="397.1" x2="-31.4" y2="68.4"/>
		<line fill="none" stroke="#96D7E4" stroke-miterlimit="10" x1="466.2" y1="390.3" x2="-28.6" y2="59.4"/>
		<line fill="none" stroke="#94D6E3" stroke-miterlimit="10" x1="469.6" y1="383.4" x2="-25.7" y2="50.4"/>
		<line fill="none" stroke="#91D5E2" stroke-miterlimit="10" x1="473" y1="376.6" x2="-22.9" y2="41.4"/>
		<line fill="none" stroke="#8FD4E2" stroke-miterlimit="10" x1="476.4" y1="369.8" x2="-20" y2="32.5"/>
		<line fill="none" stroke="#8CD3E1" stroke-miterlimit="10" x1="479.7" y1="363" x2="-17.1" y2="23.5"/>
		<line fill="none" stroke="#8AD2E0" stroke-miterlimit="10" x1="483.1" y1="356.1" x2="-14.3" y2="14.5"/>
		<line fill="none" stroke="#87D1E0" stroke-miterlimit="10" x1="486.5" y1="349.3" x2="-11.4" y2="5.5"/>
		<line fill="none" stroke="#85D0DF" stroke-miterlimit="10" x1="489.9" y1="342.5" x2="-8.6" y2="-3.5"/>
		<line fill="none" stroke="#82CFDE" stroke-miterlimit="10" x1="493.2" y1="335.7" x2="-5.7" y2="-12.5"/>
		<line fill="none" stroke="#80CEDE" stroke-miterlimit="10" x1="496.6" y1="328.8" x2="-2.9" y2="-21.5"/>
		<line fill="none" stroke="#7DCDDD" stroke-miterlimit="10" x1="500" y1="322" x2="0" y2="-30.4"/>
	</g>
	<path fill="none" stroke="#FFFFFF" stroke-miterlimit="10" d="M400,500"/>
	<path fill="none" stroke="#FFFFFF" stroke-miterlimit="10" d="M0,0"/>
</g>
<g id="Layer_6">
	<circle fill="#7DCDDD" cx="200" cy="250" r="171"/>
</g>
<g id="Layer_5">
	<polygon fill="#EF4370" points="117.8,355 68.2,201.9 198,107.3 327.8,202 278.2,355 	"/>
	<polygon fill="#D33D6C" points="117.8,355 198,107.3 68.2,201.9 327.8,202 	"/>
</g>
<g id="Layer_8">
	<text transform="matrix(1 0 0 1 15.8315 79.0001)" fill="#ECFFF5" font-family="'OpenSans-Light'" font-size="76">13</text>
</g>
</svg>
