<?xml version="1.0" encoding="utf-8"?>
<!-- Generator: Adobe Illustrator 17.1.0, SVG Export Plug-In . SVG Version: 6.00 Build 0)  -->
<!DOCTYPE svg PUBLIC "-//W3C//DTD SVG 1.1//EN" "http://www.w3.org/Graphics/SVG/1.1/DTD/svg11.dtd" [
	<!ENTITY ns_extend "http://ns.adobe.com/Extensibility/1.0/">
	<!ENTITY ns_ai "http://ns.adobe.com/AdobeIllustrator/10.0/">
	<!ENTITY ns_graphs "http://ns.adobe.com/Graphs/1.0/">
	<!ENTITY ns_vars "http://ns.adobe.com/Variables/1.0/">
	<!ENTITY ns_imrep "http://ns.adobe.com/ImageReplacement/1.0/">
	<!ENTITY ns_sfw "http://ns.adobe.com/SaveForWeb/1.0/">
	<!ENTITY ns_custom "http://ns.adobe.com/GenericCustomNamespace/1.0/">
	<!ENTITY ns_adobe_xpath "http://ns.adobe.com/XPath/1.0/">
]>
<svg version="1.1" xmlns:x="&ns_extend;" xmlns:i="&ns_ai;" xmlns:graph="&ns_graphs;"
	 xmlns="http://www.w3.org/2000/svg" xmlns:xlink="http://www.w3.org/1999/xlink" x="0px" y="0px" viewBox="0 0 1000 1000"
	 enable-background="new 0 0 1000 1000" xml:space="preserve">
<metadata>
	<sfw  xmlns="&ns_sfw;">
		<slices></slices>
		<sliceSourceBounds  width="1056" height="1080" y="-1028" x="-31" bottomLeftOrigin="true"></sliceSourceBounds>
	</sfw>
</metadata>
<g id="Layer_2" display="none">
	<rect x="-31" y="-52" display="inline" fill="#EF4370" width="1056" height="1080"/>
</g>
<g id="Layer_1">
	<polygon fill="#D33D6C" points="273.9,608 361.9,322.9 578.7,608 	"/>
	<polygon fill="#D33D6C" points="578.7,608.2 652.1,432.4 750.1,627.9 	"/>
	<polygon fill="#EF4370" points="578.7,608.2 361.9,323.1 659.1,415.6 	"/>
	<polygon fill="#EF4370" points="426.3,818.8 273.9,608 578.7,608 	"/>
	<polygon fill="#D33D6C" points="458.8,353.3 361.9,323.1 426.3,173 	"/>
	<polygon fill="#D33D6C" points="652.1,432.4 458.8,353.3 732.5,239.8 	"/>
	<polygon fill="#EF4370" points="458.8,353.3 426.3,173 732.5,239.8 	"/>
	<polygon fill="#EF4370" points="361.9,323.1 290.8,173 426.3,173 	"/>
	<polygon fill="#EF4370" points="273.9,608.2 179.9,303.4 361.9,323.1 	"/>
</g>
</svg>
